<?xml version="1.0" encoding="UTF-8"?>
<svg xmlns="http://www.w3.org/2000/svg" viewBox="0 0 1024 1024">
  <defs>
    <linearGradient id="base" x1="176" y1="120" x2="880" y2="930" gradientUnits="userSpaceOnUse">
      <stop offset="0" stop-color="#18212b"/>
      <stop offset="0.56" stop-color="#10161e"/>
      <stop offset="1" stop-color="#0a0f15"/>
    </linearGradient>
    <linearGradient id="edge" x1="184" y1="128" x2="850" y2="868" gradientUnits="userSpaceOnUse">
      <stop offset="0" stop-color="#7eddf5" stop-opacity="0.92"/>
      <stop offset="0.62" stop-color="#22b8e8" stop-opacity="0.62"/>
      <stop offset="1" stop-color="#f0b66a" stop-opacity="0.34"/>
    </linearGradient>
    <radialGradient id="glow" cx="50%" cy="40%" r="62%">
      <stop offset="0" stop-color="#22b8e8" stop-opacity="0.2"/>
      <stop offset="0.6" stop-color="#22b8e8" stop-opacity="0.06"/>
      <stop offset="1" stop-color="#22b8e8" stop-opacity="0"/>
    </radialGradient>
    <filter id="softShadow" x="-20%" y="-20%" width="140%" height="140%">
      <feDropShadow dx="0" dy="18" stdDeviation="18" flood-color="#000810" flood-opacity="0.45"/>
    </filter>
  </defs>
  <rect x="58" y="58" width="908" height="908" rx="202" fill="url(#base)"/>
  <rect x="58" y="58" width="908" height="908" rx="202" fill="url(#glow)"/>
  <rect x="80" y="80" width="864" height="864" rx="184" fill="none" stroke="url(#edge)" stroke-width="24"/>
  <path d="M185 286H839M185 512H839M185 738H839M286 185V839M512 185V839M738 185V839" stroke="#87a5b5" stroke-width="6" opacity="0.08"/>
  <g filter="url(#softShadow)" stroke-linecap="round" stroke-linejoin="round">
    
    <path d="M250 318H548C590 318 624 352 624 394V528C624 570 590 604 548 604H416L330 686V604H250C208 604 174 570 174 528V394C174 352 208 318 250 318Z" fill="#131d27" stroke="#87a5b5" stroke-width="24"/>
    <path d="M482 426H774C816 426 850 460 850 502V636C850 678 816 712 774 712H656L568 792V712H482C440 712 406 678 406 636V502C406 460 440 426 482 426Z" fill="#172432" stroke="#22b8e8" stroke-width="30"/>
    <path d="M360 418C398 392 436 444 474 418M360 496C398 470 436 522 474 496" stroke="#87a5b5" stroke-width="24" opacity="0.72"/>
    <path d="M612 520H748M612 588H714" stroke="#f4fbff" stroke-width="28"/>
    <path d="M528 342V698" stroke="#22b8e8" stroke-width="18" opacity="0.88"/>
  
  </g>
</svg>
